<?xml version="1.0" encoding="utf-8"?>
<!-- Generator: Adobe Illustrator 19.1.0, SVG Export Plug-In . SVG Version: 6.00 Build 0)  -->
<!DOCTYPE svg PUBLIC "-//W3C//DTD SVG 1.1//EN" "http://www.w3.org/Graphics/SVG/1.1/DTD/svg11.dtd">
<svg version="1.1" id="design" shape-rendering="geometricPrecision"
	 xmlns="http://www.w3.org/2000/svg" xmlns:xlink="http://www.w3.org/1999/xlink" x="0px" y="0px" viewBox="-366 595 59 35"
	 style="enable-background:new -366 595 59 35;" xml:space="preserve">
<style type="text/css">
	.st0{opacity:0.75;fill:#000000;enable-background:new    ;}
	.st1{opacity:0.75;fill:#323232;enable-background:new    ;}
	.st2{fill:#a9a9a9;}
</style>
<g>
	<path class="st0" d="M-314.7,595H-366v22.4c0,7.6,5.8,12.6,13.1,12.6h45.9v-27.7C-307,598.2-310.4,595-314.7,595z M-308,629h-44.9
		c-7,0-12.1-4.9-12.1-11.6V596h50.3c3.8,0,6.7,2.7,6.7,6.3V629z"/>
	<path class="st1" d="M-352.9,629c-7,0-12.1-4.9-12.1-11.6V596h50.3c3.8,0,6.7,2.7,6.7,6.3V629H-352.9z"/>
	<path class="st2" d="M-357.2,604h0.5c0.2,0,0.4,0,0.6,0c0.2,0,0.4-0.1,0.5-0.2c0.1-0.1,0.3-0.2,0.3-0.3c0.1-0.1,0.1-0.3,0.1-0.6
		c0-0.2,0-0.4-0.1-0.5c-0.1-0.1-0.2-0.3-0.3-0.3c-0.1-0.1-0.3-0.1-0.5-0.2c-0.2,0-0.4-0.1-0.5-0.1h-1.3v3.9h0.7V604z M-357.2,602.3
		h0.5c0.1,0,0.2,0,0.3,0c0.1,0,0.2,0,0.3,0.1c0.1,0,0.1,0.1,0.2,0.2c0.1,0.1,0.1,0.2,0.1,0.3c0,0.1,0,0.2-0.1,0.3
		c-0.1,0.1-0.1,0.1-0.2,0.2c-0.1,0-0.2,0.1-0.3,0.1c-0.1,0-0.2,0-0.3,0h-0.4V602.3z M-354.1,605.1c0.2,0.2,0.4,0.3,0.6,0.4
		c0.3,0.1,0.5,0.1,0.8,0.1c0.3,0,0.6-0.1,0.8-0.2c0.3-0.1,0.5-0.2,0.7-0.4c0.2-0.2,0.3-0.4,0.4-0.6c0.1-0.2,0.2-0.5,0.2-0.8
		c0-0.3-0.1-0.6-0.2-0.8c-0.1-0.3-0.2-0.5-0.4-0.6c-0.2-0.2-0.4-0.3-0.7-0.4c-0.3-0.1-0.5-0.1-0.8-0.1c-0.3,0-0.6,0-0.8,0.1
		c-0.3,0.1-0.5,0.2-0.6,0.4c-0.2,0.2-0.3,0.4-0.4,0.6c-0.1,0.3-0.2,0.5-0.2,0.8c0,0.3,0.1,0.6,0.2,0.8
		C-354.4,604.7-354.2,605-354.1,605.1z M-353.8,603.1c0.1-0.2,0.2-0.3,0.3-0.4c0.1-0.1,0.3-0.2,0.4-0.3c0.2-0.1,0.3-0.1,0.5-0.1
		s0.4,0,0.5,0.1c0.2,0.1,0.3,0.2,0.4,0.3c0.1,0.1,0.2,0.3,0.3,0.4c0.1,0.2,0.1,0.3,0.1,0.5c0,0.2,0,0.4-0.1,0.6
		c-0.1,0.2-0.2,0.3-0.3,0.5c-0.1,0.1-0.3,0.2-0.4,0.3c-0.2,0.1-0.3,0.1-0.5,0.1s-0.4,0-0.5-0.1c-0.2-0.1-0.3-0.2-0.4-0.3
		c-0.1-0.1-0.2-0.3-0.3-0.5c-0.1-0.2-0.1-0.4-0.1-0.6C-353.9,603.4-353.9,603.3-353.8,603.1z M-349.1,605.6l-1.1-3.9h0.8l0.7,2.8h0
		l0.9-2.8h0.7l0.9,2.8h0l0.8-2.8h0.7l-1.1,3.9h-0.7l-0.9-3h0l-0.9,3H-349.1z M-341.7,605.6h-2.7v-3.9h2.6v0.6h-1.9v1h1.8v0.6h-1.8
		v1.1h2V605.6z M-340.2,603.9h0.5l0.9,1.6h0.8l-1-1.7c0.3,0,0.5-0.2,0.7-0.3c0.2-0.2,0.2-0.4,0.2-0.7c0-0.2,0-0.4-0.1-0.5
		c-0.1-0.1-0.2-0.3-0.3-0.3c-0.1-0.1-0.3-0.1-0.5-0.2c-0.2,0-0.4-0.1-0.5-0.1h-1.3v3.9h0.7V603.9z M-340.2,602.3h0.6
		c0.1,0,0.2,0,0.3,0c0.1,0,0.2,0,0.3,0.1c0.1,0,0.1,0.1,0.2,0.2c0,0.1,0.1,0.2,0.1,0.3c0,0.1,0,0.2-0.1,0.3
		c-0.1,0.1-0.1,0.1-0.2,0.2c-0.1,0-0.2,0.1-0.3,0.1c-0.1,0-0.2,0-0.3,0h-0.5V602.3z M-334.7,605.6h-2.7v-3.9h2.6v0.6h-1.9v1h1.8v0.6
		h-1.8v1.1h2V605.6z M-331.1,602.2c-0.2-0.2-0.4-0.3-0.6-0.4c-0.2-0.1-0.5-0.1-0.7-0.1h-1.5v3.9h1.4c0.2,0,0.5,0,0.7-0.1
		c0.2-0.1,0.5-0.2,0.7-0.4c0.2-0.2,0.4-0.4,0.5-0.6c0.1-0.2,0.2-0.5,0.2-0.9c0-0.3-0.1-0.6-0.2-0.9
		C-330.7,602.6-330.9,602.4-331.1,602.2z M-331.3,604.3c-0.1,0.2-0.2,0.3-0.3,0.4c-0.1,0.1-0.3,0.2-0.5,0.2c-0.2,0-0.4,0.1-0.6,0.1
		h-0.5v-2.6h0.6c0.2,0,0.4,0,0.6,0.1c0.2,0,0.3,0.1,0.5,0.2c0.1,0.1,0.2,0.2,0.3,0.4c0.1,0.2,0.1,0.4,0.1,0.6
		C-331.2,603.9-331.2,604.1-331.3,604.3z M-326.1,605.5c0.2,0,0.3-0.1,0.5-0.2c0.1-0.1,0.2-0.2,0.3-0.3c0.1-0.1,0.1-0.3,0.1-0.5
		c0-0.1,0-0.2-0.1-0.3c0-0.1-0.1-0.2-0.2-0.3c-0.1-0.1-0.2-0.1-0.3-0.2c-0.1-0.1-0.2-0.1-0.3-0.1v0c0.2-0.1,0.4-0.2,0.5-0.3
		c0.1-0.1,0.2-0.3,0.2-0.5c0-0.2,0-0.3-0.1-0.4c-0.1-0.1-0.2-0.2-0.3-0.3c-0.1-0.1-0.2-0.1-0.4-0.2c-0.1,0-0.3-0.1-0.4-0.1h-1.5v3.9
		h1.4C-326.4,605.6-326.3,605.6-326.1,605.5z M-327.3,602.3h0.6c0.3,0,0.5,0,0.6,0.1c0.1,0.1,0.2,0.2,0.2,0.4c0,0.1-0.1,0.3-0.2,0.4
		c-0.1,0.1-0.3,0.1-0.5,0.1h-0.6V602.3z M-327.3,605v-1.1h0.7c0.3,0,0.5,0,0.6,0.1c0.1,0.1,0.2,0.2,0.2,0.4c0,0.1,0,0.2-0.1,0.3
		c-0.1,0.1-0.1,0.1-0.2,0.2c-0.1,0-0.2,0.1-0.3,0.1c-0.1,0-0.2,0-0.3,0H-327.3z M-323.4,603.9l-1.5-2.2h0.9l1,1.5l1-1.5h0.8
		l-1.5,2.2v1.7h-0.7V603.9z M-320.5,608.2c0.5,0,0.9,0.1,1.3,0.2l-0.1,3.6c-0.6-0.1-1.1-0.2-1.7-0.2c-3.5,0-4,3-4,3.8v8h-3.8v-15
		h3.8v2.4h0.1C-324.2,609.3-322.5,608.2-320.5,608.2z M-317.3,608.6h3.8v15h-3.8V608.6z M-350.9,608.2c-4.5,0-8.2,3.2-8.2,7.9
		c0,4.7,3.6,7.9,8.2,7.9c2.1,0,4-0.6,5.6-2.2l-2.4-2.4c-0.9,0.9-2,1.6-3.6,1.6c-2.1,0-3.8-1.3-4-3.6h11.4v-1
		C-343.9,611.2-346.7,608.2-350.9,608.2z M-355.3,614.6c0.3-2.2,1.7-3.6,3.9-3.6c2.3,0,3.8,1.4,3.8,3.6H-355.3z M-317.9,603.4
		c0-1.3,1-2.4,2.5-2.4c1.4,0,2.5,1,2.5,2.4c0,1.4-1.1,2.4-2.5,2.4C-316.9,605.8-317.9,604.7-317.9,603.4z M-330.5,619.2
		c0,3.6-3.4,4.8-6.5,4.8c-2.3,0-4.2-0.6-5.8-2.2l2.4-2.4c1,1.1,2,1.8,3.6,1.8c1.1,0,2.5-0.5,2.5-1.7c0-3.1-8.1-0.7-8.1-6.4
		c0-3.3,3-4.8,6-4.8c1.9,0,4,0.6,5.2,2.1l-2.4,2.4c-0.7-1-1.7-1.5-2.9-1.5c-1,0-2.2,0.5-2.2,1.6
		C-338.6,615.5-330.5,613.3-330.5,619.2z"/>
</g>
</svg>
